# xmcd
#
# Track frame offsets:
#	150
#	19987
#	42618
#	77290
#	121625
#	152703
#	173109
#	195145
#	233063
#
# Disc length: 3381 seconds
#
# Revision: 0
# Processed by: cddbd v1.5.2PL0 Copyright (c) Steve Scherf et al.
# Submitted via: EasyCDDAExtractor 16.0.8.1
#
DISCID=5d0d3309
DTITLE=Khaled - Igoulou
DYEAR=1900
DGENRE=
TTITLE0=Igoulou
TTITLE1=Kari Fik Lamane
TTITLE2=Hada Ray Koum
TTITLE3=Mal H'bibti Madjatche
TTITLE4=Maskhiti Machefiti
TTITLE5=Ouelfi
TTITLE6=Ouila
TTITLE7=Raha M'rida
TTITLE8=Saiba
EXTD=
EXTT0=
EXTT1=
EXTT2=
EXTT3=
EXTT4=
EXTT5=
EXTT6=
EXTT7=
EXTT8=
PLAYORDER=
